#!OML:ASF F:\VICON\USERDATA\INSTALL\rory3\rory3.ASF
:FULLY-SPECIFIED
:DEGREES
97
root 0.318186 17.2757 23.8148 3.0892 -2.55868 -2.46653
lowerback 17.202 -0.531672 1.2708
upperback 1.84062 -0.298066 2.01757
thorax -7.66797 -0.153136 1.51266
lowerneck -4.54557 1.64711 1.2069
upperneck -7.06512 1.9505 -4.49391
head -1.37463 1.00055 -1.60518
rclavicle -7.35503e-015 1.07344e-014
rhumerus -26.2387 11.7051 -84.3718
rradius 98.1791
rwrist -0.135272
rhand -37.9446 34.3091
rfingers 7.12502
rthumb -10.9859 4.61659
lclavicle -7.35503e-015 1.07344e-014
lhumerus -49.8332 -13.5925 96.235
lradius 109.082
lwrist 35.136
lhand -34.0551 15.571
lfingers 7.12502
lthumb -7.23276 45.4274
rfemur -10.5996 6.51783 30.2971
rtibia 40.7896
rfoot -18.2139 -6.67712
rtoes -5.51268
lfemur -27.1902 10.9661 -12.6043
ltibia 111.719
lfoot 11.4969 -6.03532
ltoes -12.3043
98
root 0.320941 17.3369 24.301 3.63862 -2.69702 -2.41888
lowerback 16.6871 -0.140409 1.22011
upperback 1.81684 0.185074 1.8884
thorax -7.41718 0.079797 1.28563
lowerneck -5.40999 1.40203 1.22492
upperneck -6.33868 1.6565 -4.21296
head -1.01055 0.833763 -1.50168
rclavicle 1.08338e-014 -2.34566e-014
rhumerus -25.1285 11.6783 -84.2902
rradius 99.2285
rwrist 0.204474
rhand -37.9608 34.8103
rfingers 7.12502
rthumb -11.0015 5.11857
lclavicle 1.08338e-014 -2.34566e-014
lhumerus -50.6375 -13.7804 96.275
lradius 109.614
lwrist 36.1463
lhand -33.5737 14.7971
lfingers 7.12502
lthumb -6.76805 44.6689
rfemur -8.90273 6.66641 30.2019
rtibia 39.6759
rfoot -17.675 -6.15984
rtoes -7.27137
lfemur -30.5532 10.6377 -13.528
ltibia 111.019
lfoot 11.4548 -6.12078
ltoes -9.95972
99
root 0.330449 17.4063 24.7806 4.04149 -2.64125 -2.72807
lowerback 16.473 0.138971 1.6038
upperback 1.71992 0.615915 1.83612
thorax -7.40459 0.275908 0.914191
lowerneck -5.88028 1.10846 1.06838
upperneck -5.81644 1.30607 -3.65199
head -0.783411 0.649072 -1.29124
rclavicle -6.95746e-016 -3.97569e-016
rhumerus -24.3182 11.5832 -84.3077
rradius 100.148
rwrist 0.183761
rhand -38.1269 35.7711
rfingers 7.12502
rthumb -11.1616 6.08798
lclavicle -6.95746e-016 -3.97569e-016
lhumerus -51.5523 -13.8299 96.2821
lradius 110.254
lwrist 36.9927
lhand -34.5272 17.2933
lfingers 7.12502
lthumb -7.68849 47.1335
rfemur -6.91574 6.59092 30.4727
rtibia 38.2773
rfoot -16.737 -5.56463
rtoes -9.68581
lfemur -33.4427 10.0791 -13.9345
ltibia 109.835
lfoot 10.9352 -6.0859
ltoes -9.20908
100
root 0.349497 17.494 25.2817 4.02474 -2.80192 -3.02045
lowerback 16.5409 0.448556 2.10426
upperback 1.60967 1.10756 1.67933
thorax -7.55049 0.4944 0.351587
lowerneck -5.79229 0.815866 1.0174
upperneck -5.51428 0.944289 -3.07192
head -0.715548 0.465375 -1.10232
rclavicle 4.47266e-016 -1.25234e-014
rhumerus -24.0694 11.5902 -84.4659
rradius 101.188
rwrist -0.118745
rhand -38.6785 36.3115
rfingers 7.12502
rthumb -11.6936 6.65787
lclavicle 4.47266e-016 -1.25234e-014
lhumerus -52.6607 -13.8451 96.1936
lradius 110.756
lwrist 37.1556
lhand -37.5222 29.2721
lfingers 7.12502
lthumb -10.5784 58.9859
rfemur -4.35185 6.29388 30.6206
rtibia 36.788
rfoot -15.3786 -4.6592
rtoes -12.6865
lfemur -35.0439 9.47504 -14.3006
ltibia 108.038
lfoot 9.55435 -5.73221
ltoes -10.0989
101
root 0.365821 17.5976 25.8066 4.22035 -3.93996 -3.39561
lowerback 16.1658 1.11314 2.50994
upperback 1.50932 2.02811 1.45082
thorax -7.42026 0.923962 -0.322674
lowerneck -5.58833 0.560519 0.987686
upperneck -5.36956 0.629493 -2.38795
head -0.712531 0.306749 -0.887011
rclavicle -1.26228e-014 -9.54166e-015
rhumerus -23.9768 11.626 -84.7052
rradius 102.204
rwrist -0.642474
rhand -38.9608 36.48
rfingers 7.12502
rthumb -11.9658 6.84202
lclavicle -1.26228e-014 -9.54166e-015
lhumerus -53.8131 -13.8005 95.9477
lradius 111.334
lwrist 36.8656
lhand -33.2738 14.1461
lfingers 7.12502
lthumb -6.47856 44.027
rfemur -2.03356 6.90565 30.6929
rtibia 35.2715
rfoot -12.9674 -3.3456
rtoes -14.5192
lfemur -36.3699 9.93747 -14.5081
ltibia 105.797
lfoot 8.3421 -5.39078
ltoes -9.91844
102
root 0.357222 17.6899 26.2708 4.97328 -3.77961 -3.82935
lowerback 16.0077 1.35103 2.86288
upperback 1.05022 2.40776 1.35901
thorax -7.80157 1.08597 -0.70556
lowerneck -5.04984 0.306738 0.594463
upperneck -5.64879 0.337702 -1.42254
head -0.892095 0.16715 -0.528679
rclavicle 1.0635e-014 5.96354e-016
rhumerus -23.9364 11.9641 -84.9098
rradius 103.197
rwrist -1.30504
rhand -39.2549 36.1483
rfingers 7.12502
rthumb -12.2495 6.52699
lclavicle 1.0635e-014 5.96354e-016
lhumerus -55.1524 -13.4215 95.7598
lradius 112.145
lwrist 36.4555
lhand -34.455 19.0025
lfingers 7.12502
lthumb -7.61871 48.8453
rfemur -1.02314 7.21538 31.1031
rtibia 34.3172
rfoot -9.9304 -2.64621
rtoes -14.4528
lfemur -39.4038 9.24372 -14.58
ltibia 103.641
lfoot 7.96826 -5.32141
ltoes -9.70605
103
root 0.372931 17.7657 26.7663 4.96549 -3.3023 -3.7245
lowerback 16.2754 1.39799 3.02361
upperback 0.773089 2.49979 1.12274
thorax -8.23056 1.11001 -1.08225
lowerneck -4.27514 0.087916 0.104893
upperneck -6.09059 0.0993332 -0.411406
head -1.15825 0.0523061 -0.14274
rclavicle -1.92076e-014 -2.48481e-015
rhumerus -24.3999 12.4271 -85.1622
rradius 104.452
rwrist -1.98058
rhand -39.7878 36.2536
rfingers 7.12502
rthumb -12.7632 6.66371
lclavicle -1.92076e-014 -2.48481e-015
lhumerus -56.575 -12.9328 95.6282
lradius 112.788
lwrist 35.9145
lhand -32.1882 10.3632
lfingers 7.12502
lthumb -5.43046 40.2737
rfemur 0.904426 7.06788 30.9847
rtibia 33.1316
rfoot -7.1286 -1.91568
rtoes -14.9032
lfemur -40.7611 7.79386 -15.1216
ltibia 100.969
lfoot 6.5705 -4.97603
ltoes -11.4146
104
root 0.330544 17.8043 27.2249 7.0131 -6.34543 -4.47798
lowerback 14.7163 2.88906 2.01441
upperback 0.110372 4.26961 1.19088
thorax -8.08529 2.0062 -0.775887
lowerneck -4.18261 -0.0538343 -0.157851
upperneck -6.02385 -0.0570138 0.198325
head -1.15283 -0.0263281 0.0863471
rclavicle 1.12313e-014 -7.55382e-015
rhumerus -24.7591 13.0241 -85.3384
rradius 105.649
rwrist -2.87708
rhand -40.6562 36.7347
rfingers 7.12502
rthumb -13.6003 7.199
lclavicle 1.12313e-014 -7.55382e-015
lhumerus -57.392 -12.3982 95.3274
lradius 113.204
lwrist 35.5428
lhand -32.4246 11.0269
lfingers 7.12502
lthumb -5.65872 40.9313
rfemur 0.686932 9.6066 30.9849
rtibia 31.717
rfoot -3.33353 -0.227882
rtoes -14.8768
lfemur -43.0612 10.5957 -14.6036
ltibia 98.4209
lfoot 4.87014 -5.20428
ltoes -8.24705
105
root 0.323013 17.9713 27.7643 8.01219 -5.59278 -4.47926
lowerback 13.5269 2.86215 2.11302
upperback -0.178027 4.21211 1.00937
thorax -7.7052 1.98024 -0.95351
lowerneck -4.49779 -0.240898 -0.196113
upperneck -5.63618 -0.294424 0.503374
head -0.979402 -0.146406 0.183927
rclavicle -3.37064e-014 -8.54774e-015
rhumerus -24.744 14.0201 -85.456
rradius 106.347
rwrist -3.94153
rhand -41.748 37.4594
rfingers 7.12502
rthumb -14.6524 7.99711
lclavicle -3.37064e-014 -8.54774e-015
lhumerus -57.8354 -11.8446 94.7732
lradius 113.601
lwrist 35.5094
lhand -32.0101 11.8498
lfingers 7.12502
lthumb -5.25844 41.7645
rfemur 1.92125 9.17049 30.7268
rtibia 29.5628
rfoot 0.805399 0.539948
rtoes -10.1819
lfemur -46.1659 8.96663 -15.308
ltibia 94.4269
lfoot 6.20617 -4.73951
ltoes -13.0544
106
root 0.389488 18.1124 28.4289 6.97269 -5.13922 -3.37275
lowerback 12.6017 2.80052 2.29546
upperback 0.396242 4.06719 0.349907
thorax -6.51102 1.92051 -1.64942
lowerneck -4.69645 -0.500482 -0.131592
upperneck -5.30279 -0.640013 0.639608
head -0.842534 -0.320621 0.211596
rclavicle -3.05127e-014 7.83957e-015
rhumerus -24.8754 14.8254 -85.617
rradius 106.717
rwrist -4.30632
rhand -41.7713 37.639
rfingers 7.12502
rthumb -14.6749 8.17837
lclavicle -3.05127e-014 7.83957e-015
lhumerus -58.4379 -11.2554 94.2368
lradius 113.973
lwrist 35.4858
lhand -28.7577 4.49972
lfingers 7.12502
lthumb -2.11769 34.469
rfemur 5.94897 8.21838 29.1925
rtibia 26.8754
rfoot 5.14798 1.45145
rtoes -2.72437
lfemur -44.7809 6.68405 -16.7621
ltibia 90.0073
lfoot 6.04098 -3.37093
ltoes -8.64159
107
root 0.417503 18.185 28.9543 5.90863 -1.25712 -2.38658
lowerback 13.482 1.53982 2.70023
upperback 0.454105 2.45703 0.0112595
thorax -6.97337 1.10742 -1.98378
lowerneck -4.52685 -0.667478 -0.439989
upperneck -5.0036 -0.84157 1.01471
head -0.775122 -0.418052 0.374375
rclavicle 1.4269e-014 8.39865e-015
rhumerus -25.6867 15.4911 -85.8782
rradius 107.292
rwrist -4.1305
rhand -41.2465 38.5118
rfingers 7.12502
rthumb -14.1692 9.01498
lclavicle 1.4269e-014 8.39865e-015
lhumerus -59.5048 -10.4647 93.8774
lradius 114.456
lwrist 35.3438
lhand -32.1104 8.5949
lfingers 7.12502
lthumb -5.35528 38.5072
rfemur 9.99388 6.09906 29.0571
rtibia 23.2581
rfoot 9.41161 -0.836737
rtoes 1.24927
lfemur -44.7414 1.70848 -17.6065
ltibia 85.7329
lfoot 6.04292 -3.22904
ltoes -10.2839
108
root 0.449469 18.2561 29.5262 4.97371 -0.284757 -2.19045
lowerback 13.6602 1.27388 3.23172
upperback 0.671034 2.16727 -0.280576
thorax -6.82509 0.95018 -2.54003
lowerneck -4.31159 -0.758984 -0.786493
upperneck -4.76745 -0.939019 1.52391
head -0.733988 -0.463912 0.586572
rclavicle 5.19325e-015 -1.39149e-015
rhumerus -26.4509 15.962 -86.0252
rradius 107.771
rwrist -3.41019
rhand -41.5286 42.6237
rfingers 7.12502
rthumb -14.441 13.1462
lclavicle 5.19325e-015 -1.39149e-015
lhumerus -60.4751 -9.7614 93.4546
lradius 115.046
lwrist 35.3299
lhand -33.2268 9.3728
lfingers 7.12502
lthumb -6.43315 39.2551
rfemur 14.1071 5.57551 29.0239
rtibia 19.595
rfoot 13.8084 -2.2144
rtoes 2.78109
lfemur -43.7555 -0.105407 -17.8379
ltibia 81.3565
lfoot 5.14989 -3.53599
ltoes -12.6913
